<?xml version="1.0" encoding="UTF-8" standalone="no"?>
<!DOCTYPE svg PUBLIC "-//W3C//DTD SVG 1.1//EN" "http://www.w3.org/Graphics/SVG/1.1/DTD/svg11.dtd">
<svg version="1.1" xmlns="http://www.w3.org/2000/svg" xmlns:xlink="http://www.w3.org/1999/xlink" preserveAspectRatio="xMidYMid meet" viewBox="0 0 640 640" width="640" height="640"><defs><path d="M346.05 3.25L358.86 4.55L371.52 6.35L384.02 8.65L396.33 11.43L408.47 14.69L420.41 18.41L432.14 22.57L443.66 27.18L454.95 32.22L466 37.69L476.81 43.56L487.36 49.83L497.64 56.5L507.64 63.54L517.36 70.96L526.78 78.73L535.89 86.86L544.68 95.32L553.14 104.11L561.27 113.22L569.04 122.64L576.46 132.36L583.5 142.36L590.17 152.64L596.44 163.19L602.31 174L607.78 185.05L612.82 196.34L617.43 207.86L621.59 219.59L625.31 231.53L628.57 243.67L631.35 255.98L633.65 268.48L635.45 281.14L636.75 293.95L637.54 306.91L637.81 320L637.54 333.09L636.75 346.05L635.45 358.86L633.65 371.52L631.35 384.02L628.57 396.33L625.31 408.47L621.59 420.41L617.43 432.14L612.82 443.66L607.78 454.95L602.31 466L596.44 476.81L590.17 487.36L583.5 497.64L576.46 507.64L569.04 517.36L561.27 526.78L553.14 535.89L544.68 544.68L535.89 553.14L526.78 561.27L517.36 569.04L507.64 576.46L497.64 583.5L487.36 590.17L476.81 596.44L466 602.31L454.95 607.78L443.66 612.82L432.14 617.43L420.41 621.59L408.47 625.31L396.33 628.57L384.02 631.35L371.52 633.65L358.86 635.45L346.05 636.75L333.09 637.54L320 637.81L306.91 637.54L293.95 636.75L281.14 635.45L268.48 633.65L255.98 631.35L243.67 628.57L231.53 625.31L219.59 621.59L207.86 617.43L196.34 612.82L185.05 607.78L174 602.31L163.19 596.44L152.64 590.17L142.36 583.5L132.36 576.46L122.64 569.04L113.22 561.27L104.11 553.14L95.32 544.68L86.86 535.89L78.73 526.78L70.96 517.36L63.54 507.64L56.5 497.64L49.83 487.36L43.56 476.81L37.69 466L32.22 454.95L27.18 443.66L22.57 432.14L18.41 420.41L14.69 408.47L11.43 396.33L8.65 384.02L6.35 371.52L4.55 358.86L3.25 346.05L2.46 333.09L2.19 320L2.46 306.91L3.25 293.95L4.55 281.14L6.35 268.48L8.65 255.98L11.43 243.67L14.69 231.53L18.41 219.59L22.57 207.86L27.18 196.34L32.22 185.05L37.69 174L43.56 163.19L49.83 152.64L56.5 142.36L63.54 132.36L70.96 122.64L78.73 113.22L86.86 104.11L95.32 95.32L104.11 86.86L113.22 78.73L122.64 70.96L132.36 63.54L142.36 56.5L152.64 49.83L163.19 43.56L174 37.69L185.05 32.22L196.34 27.18L207.86 22.57L219.59 18.41L231.53 14.69L243.67 11.43L255.98 8.65L268.48 6.35L281.14 4.55L293.95 3.25L306.91 2.46L320 2.19L333.09 2.46L346.05 3.25ZM298.72 61.27L288.26 62.34L277.92 63.81L267.71 65.69L257.65 67.96L247.74 70.62L237.99 73.65L228.4 77.06L219 80.82L209.77 84.94L200.75 89.4L191.92 94.2L183.3 99.33L174.9 104.77L166.73 110.52L158.79 116.58L151.1 122.93L143.66 129.57L136.48 136.48L129.57 143.66L122.93 151.1L116.58 158.79L110.52 166.73L104.77 174.9L99.33 183.3L94.2 191.92L89.4 200.75L84.94 209.77L80.82 219L77.06 228.4L73.65 237.99L70.62 247.74L67.96 257.65L65.69 267.71L63.81 277.92L62.34 288.26L61.27 298.72L60.63 309.31L60.41 320L60.63 330.69L61.27 341.28L62.34 351.74L63.81 362.08L65.69 372.29L67.96 382.35L70.62 392.26L73.65 402.01L77.06 411.6L80.82 421L84.94 430.23L89.4 439.25L94.2 448.08L99.33 456.7L104.77 465.1L110.52 473.27L116.58 481.21L122.93 488.9L129.57 496.34L136.48 503.52L143.66 510.43L151.1 517.07L158.79 523.42L166.73 529.48L174.9 535.23L183.3 540.67L191.92 545.8L200.75 550.6L209.77 555.06L219 559.18L228.4 562.94L237.99 566.35L247.74 569.38L257.65 572.04L267.71 574.31L277.92 576.19L288.26 577.66L298.72 578.73L309.31 579.37L320 579.59L330.69 579.37L341.28 578.73L351.74 577.66L362.08 576.19L372.29 574.31L382.35 572.04L392.26 569.38L402.01 566.35L411.6 562.94L421 559.18L430.23 555.06L439.25 550.6L448.08 545.8L456.7 540.67L465.1 535.23L473.27 529.48L481.21 523.42L488.9 517.07L496.34 510.43L503.52 503.52L510.43 496.34L517.07 488.9L523.42 481.21L529.48 473.27L535.23 465.1L540.67 456.7L545.8 448.08L550.6 439.25L555.06 430.23L559.18 421L562.94 411.6L566.35 402.01L569.38 392.26L572.04 382.35L574.31 372.29L576.19 362.08L577.66 351.74L578.73 341.28L579.37 330.69L579.59 320L579.37 309.31L578.73 298.72L577.66 288.26L576.19 277.92L574.31 267.71L572.04 257.65L569.38 247.74L566.35 237.99L562.94 228.4L559.18 219L555.06 209.77L550.6 200.75L545.8 191.92L540.67 183.3L535.23 174.9L529.48 166.73L523.42 158.79L517.07 151.1L510.43 143.66L503.52 136.48L496.34 129.57L488.9 122.93L481.21 116.58L473.27 110.52L465.1 104.77L456.7 99.33L448.08 94.2L439.25 89.4L430.23 84.94L421 80.82L411.6 77.06L402.01 73.65L392.26 70.62L382.35 67.96L372.29 65.69L362.08 63.81L351.74 62.34L341.28 61.27L330.69 60.63L320 60.41L309.31 60.63L298.72 61.27ZM333.29 424.4L334.14 425.35L334.94 426.33L335.69 427.33L336.4 428.36L337.06 429.41L337.67 430.47L338.24 431.56L338.77 432.66L339.25 433.78L339.68 434.91L340.07 436.05L340.41 437.21L340.71 438.38L340.96 439.55L341.16 440.73L341.32 441.92L341.44 443.11L341.51 444.31L341.53 445.5L341.51 446.7L341.44 447.89L341.32 449.08L341.16 450.27L340.96 451.45L340.71 452.63L340.41 453.79L340.07 454.95L339.68 456.09L339.25 457.22L338.77 458.34L338.24 459.44L337.67 460.53L337.06 461.6L336.4 462.64L335.69 463.67L334.94 464.67L334.14 465.65L333.29 466.6L332.4 467.53L331.5 468.4L330.56 469.23L329.61 470.01L328.63 470.75L327.62 471.44L326.6 472.08L325.55 472.69L324.49 473.25L323.41 473.76L322.32 474.23L321.21 474.65L320.09 475.03L318.96 475.37L317.82 475.66L316.67 475.9L315.51 476.1L314.35 476.26L313.18 476.37L312.02 476.44L310.84 476.46L309.67 476.44L308.51 476.37L307.34 476.26L306.18 476.1L305.02 475.9L303.87 475.66L302.73 475.37L301.6 475.03L300.48 474.65L299.37 474.23L298.28 473.76L297.2 473.25L296.14 472.69L295.09 472.08L294.07 471.44L293.06 470.75L292.08 470.01L291.13 469.23L290.19 468.4L289.29 467.53L262.42 440.66L306.01 397.07L332.4 423.47L333.29 424.4ZM313.18 163.63L314.35 163.74L315.51 163.9L316.67 164.1L317.82 164.34L318.96 164.63L320.09 164.97L321.21 165.35L322.32 165.77L323.41 166.24L324.49 166.75L325.55 167.31L326.6 167.92L327.62 168.56L328.63 169.25L329.61 169.99L330.56 170.77L331.5 171.6L332.4 172.47L333.29 173.4L334.14 174.35L334.94 175.33L335.69 176.33L336.4 177.36L337.06 178.4L337.67 179.47L338.24 180.56L338.77 181.66L339.25 182.78L339.68 183.91L340.07 185.05L340.41 186.21L340.71 187.37L340.96 188.55L341.16 189.73L341.32 190.92L341.44 192.11L341.51 193.3L341.53 194.5L341.51 195.69L341.44 196.89L341.32 198.08L341.16 199.27L340.96 200.45L340.71 201.62L340.41 202.79L340.07 203.95L339.68 205.09L339.25 206.22L338.77 207.34L338.24 208.44L337.67 209.53L337.06 210.59L336.4 211.64L335.69 212.67L334.94 213.67L334.14 214.65L333.29 215.6L332.4 216.53L306.01 242.93L259.76 289.18L455.26 289.18L456.52 289.2L457.76 289.28L458.99 289.4L460.21 289.58L461.41 289.8L462.59 290.06L463.76 290.38L464.9 290.73L466.03 291.13L467.13 291.57L468.22 292.06L469.28 292.58L470.31 293.14L471.32 293.75L472.31 294.39L473.27 295.06L474.2 295.77L475.11 296.52L475.98 297.3L476.82 298.11L477.63 298.95L478.41 299.83L479.16 300.73L479.87 301.66L480.55 302.62L481.19 303.61L481.79 304.62L482.35 305.66L482.87 306.72L483.36 307.8L483.8 308.9L484.2 310.03L484.56 311.18L484.87 312.34L485.13 313.52L485.35 314.72L485.53 315.94L485.65 317.17L485.73 318.41L485.75 319.67L485.73 320.95L485.65 322.22L485.52 323.48L485.35 324.72L485.12 325.95L484.85 327.15L484.53 328.34L484.17 329.51L483.76 330.67L483.31 331.79L482.81 332.9L482.28 333.98L481.7 335.04L481.09 336.08L480.43 337.09L479.74 338.07L479.02 339.02L478.25 339.94L477.46 340.84L476.63 341.7L475.77 342.53L474.87 343.32L473.95 344.08L473 344.81L472.02 345.5L471.01 346.15L469.98 346.77L468.92 347.34L467.83 347.88L466.73 348.37L465.6 348.83L464.45 349.23L463.28 349.6L462.09 349.92L460.88 350.19L459.65 350.41L458.41 350.59L457.15 350.72L455.88 350.8L454.6 350.82L259.75 350.82L306.01 397.07L262.42 440.66L190.05 368.29L207.51 350.82L207.51 350.82L190.05 368.29L165.76 344L165.06 343.43L164.1 342.59L163.18 341.7L162.31 340.79L161.48 339.86L160.7 338.9L159.96 337.92L159.27 336.91L158.62 335.89L158.02 334.85L157.46 333.78L156.95 332.7L156.48 331.61L156.05 330.5L155.68 329.38L155.34 328.25L155.05 327.11L154.8 325.96L154.6 324.8L154.45 323.64L154.34 322.48L154.27 321.31L154.25 320.14L154.25 320L154.25 319.86L154.25 319.82L154.25 319.78L154.27 318.52L154.35 317.27L154.47 316.04L154.65 314.82L154.87 313.62L155.14 312.43L155.45 311.26L155.81 310.11L156.21 308.98L156.65 307.87L157.14 306.78L157.66 305.72L158.23 304.68L158.83 303.66L159.47 302.67L160.15 301.71L160.87 300.77L161.61 299.87L162.4 298.99L163.21 298.14L164.06 297.33L164.93 296.55L165.84 295.8L166.33 295.42L190.05 271.71L207.51 289.18L207.51 289.18L190.05 271.71L262.42 199.34L268.17 205.09L262.42 199.34L289.29 172.47L290.19 171.6L291.13 170.77L292.08 169.99L293.06 169.25L294.07 168.56L295.09 167.92L296.14 167.31L297.2 166.75L298.28 166.24L299.37 165.77L300.48 165.35L301.6 164.97L302.73 164.63L303.87 164.34L305.02 164.1L306.18 163.9L307.34 163.74L308.51 163.63L309.67 163.56L310.84 163.54L312.02 163.56L313.18 163.63ZM273.67 210.59L306.01 242.93L306.01 242.93L273.67 210.59Z" id="byencwTB3"></path></defs><g><g><g><use xlink:href="#byencwTB3" opacity="1" fill="#e34949" fill-opacity="1"></use></g></g></g></svg>