<?xml version="1.0" encoding="UTF-8" standalone="no"?>
<!DOCTYPE svg PUBLIC "-//W3C//DTD SVG 1.1//EN" "http://www.w3.org/Graphics/SVG/1.1/DTD/svg11.dtd">
<svg version="1.1" xmlns="http://www.w3.org/2000/svg" xmlns:xlink="http://www.w3.org/1999/xlink" preserveAspectRatio="xMidYMid meet" viewBox="113.44478812248677 40.803278688524486 415.11042375502643 566.6229508196726" width="411.11" height="562.62"><defs><path d="M336.86 42.46L345.15 43.27L353.34 44.39L361.43 45.83L369.4 47.56L377.25 49.58L384.97 51.9L392.56 54.49L400.01 57.36L407.31 60.5L414.46 63.9L421.45 67.56L428.28 71.46L434.93 75.61L441.4 80L447.68 84.61L453.77 89.46L459.66 94.51L465.35 99.78L470.82 105.26L476.07 110.93L481.1 116.8L485.89 122.85L490.45 129.08L494.76 135.49L498.81 142.06L502.61 148.79L506.14 155.67L509.4 162.71L512.38 169.88L515.08 177.19L517.48 184.63L519.58 192.19L521.38 199.87L522.86 207.65L524.03 215.54L524.87 223.53L525.38 231.6L525.56 239.76L525.38 247.93L524.87 256.02L524.03 264.05L522.86 272.04L521.38 279.98L519.58 287.9L517.48 295.79L515.08 303.67L512.38 311.54L509.4 319.42L506.14 327.32L502.61 335.24L498.81 343.19L494.76 351.19L490.45 359.24L485.89 367.34L481.1 375.52L476.07 383.78L470.82 392.13L465.35 400.58L459.66 409.13L453.77 417.81L447.68 426.6L441.4 435.54L434.93 444.61L428.28 453.85L421.45 463.24L414.46 472.81L407.31 482.55L400.01 492.49L392.56 502.63L384.97 512.98L377.25 523.55L369.4 534.35L361.43 545.38L353.34 556.66L345.15 568.19L336.86 579.99L328.47 592.07L320 604.43L311.53 592.07L303.14 579.99L294.85 568.19L286.66 556.66L278.57 545.38L270.6 534.35L262.75 523.55L255.03 512.98L247.44 502.63L239.99 492.49L232.69 482.55L225.54 472.81L218.55 463.24L211.72 453.85L205.07 444.61L198.6 435.54L192.32 426.6L186.23 417.81L180.34 409.13L174.65 400.58L169.18 392.13L163.93 383.78L158.9 375.52L154.11 367.34L149.55 359.24L145.24 351.19L141.19 343.19L137.39 335.24L133.86 327.32L130.6 319.42L127.62 311.54L124.92 303.67L122.52 295.79L120.42 287.9L118.62 279.98L117.14 272.04L115.97 264.05L115.13 256.02L114.62 247.93L114.44 239.76L114.62 231.6L115.13 223.53L115.97 215.54L117.14 207.65L118.62 199.87L120.42 192.19L122.52 184.63L124.92 177.19L127.62 169.88L130.6 162.71L133.86 155.67L137.39 148.79L141.19 142.06L145.24 135.49L149.55 129.08L154.11 122.85L158.9 116.8L163.93 110.93L169.18 105.26L174.65 99.78L180.34 94.51L186.23 89.46L192.32 84.61L198.6 80L205.07 75.61L211.72 71.46L218.55 67.56L225.54 63.9L232.69 60.5L239.99 57.36L247.44 54.49L255.03 51.9L262.75 49.58L270.6 47.56L278.57 45.83L286.66 44.39L294.85 43.27L303.14 42.46L311.53 41.97L320 41.8L328.47 41.97L336.86 42.46ZM312.01 135.88L308.09 136.27L304.21 136.8L300.38 137.48L296.6 138.3L292.88 139.26L289.22 140.35L285.63 141.58L282.1 142.94L278.64 144.43L275.25 146.04L271.94 147.77L268.71 149.62L265.56 151.59L262.5 153.67L259.52 155.85L256.63 158.15L253.84 160.54L251.15 163.04L248.56 165.63L246.07 168.32L243.69 171.1L241.42 173.96L239.26 176.92L237.22 179.95L235.3 183.06L233.5 186.25L231.83 189.51L230.28 192.84L228.87 196.24L227.6 199.71L226.46 203.23L225.46 206.81L224.61 210.45L223.91 214.13L223.35 217.87L222.95 221.65L222.71 225.48L222.63 229.34L222.71 233.21L222.95 237.03L223.35 240.82L223.91 244.55L224.61 248.24L225.46 251.88L226.46 255.46L227.6 258.98L228.87 262.45L230.28 265.84L231.83 269.18L233.5 272.44L235.3 275.63L237.22 278.74L239.26 281.77L241.42 284.72L243.69 287.59L246.07 290.37L248.56 293.06L251.15 295.65L253.84 298.15L256.63 300.54L259.52 302.84L262.5 305.02L265.56 307.1L268.71 309.07L271.94 310.92L275.25 312.65L278.64 314.26L282.1 315.75L285.63 317.11L289.22 318.33L292.88 319.43L296.6 320.39L300.38 321.21L304.21 321.89L308.09 322.42L312.01 322.8L315.99 323.04L320 323.11L324.01 323.04L327.99 322.8L331.91 322.42L335.79 321.89L339.62 321.21L343.4 320.39L347.12 319.43L350.78 318.33L354.37 317.11L357.9 315.75L361.36 314.26L364.75 312.65L368.06 310.92L371.29 309.07L374.44 307.1L377.5 305.02L380.48 302.84L383.37 300.54L386.16 298.15L388.85 295.65L391.44 293.06L393.93 290.37L396.31 287.59L398.58 284.72L400.74 281.77L402.78 278.74L404.7 275.63L406.5 272.44L408.17 269.18L409.72 265.84L411.13 262.45L412.4 258.98L413.54 255.46L414.54 251.88L415.39 248.24L416.09 244.55L416.65 240.82L417.05 237.03L417.29 233.21L417.37 229.34L417.29 225.48L417.05 221.65L416.65 217.87L416.09 214.13L415.39 210.45L414.54 206.81L413.54 203.23L412.4 199.71L411.13 196.24L409.72 192.84L408.17 189.51L406.5 186.25L404.7 183.06L402.78 179.95L400.74 176.92L398.58 173.96L396.31 171.1L393.93 168.32L391.44 165.63L388.85 163.04L386.16 160.54L383.37 158.15L380.48 155.85L377.5 153.67L374.44 151.59L371.29 149.62L368.06 147.77L364.75 146.04L361.36 144.43L357.9 142.94L354.37 141.58L350.78 140.35L347.12 139.26L343.4 138.3L339.62 137.48L335.79 136.8L331.91 136.27L327.99 135.88L324.01 135.65L320 135.57L315.99 135.65L312.01 135.88Z" id="f235Tl7Jqt"></path></defs><g><g><use xlink:href="#f235Tl7Jqt" opacity="1" fill="#b7b7b7" fill-opacity="1"></use></g></g></svg>