<?xml version="1.0" encoding="UTF-8" standalone="no"?>
<!DOCTYPE svg PUBLIC "-//W3C//DTD SVG 1.1//EN" "http://www.w3.org/Graphics/SVG/1.1/DTD/svg11.dtd">
<svg version="1.1" xmlns="http://www.w3.org/2000/svg" xmlns:xlink="http://www.w3.org/1999/xlink" preserveAspectRatio="xMidYMid meet" viewBox="0 0 640 640" width="640" height="640"><defs><path d="M22.48 129.22L20.4 126.87L18.43 124.46L16.58 121.99L14.84 119.47L13.21 116.89L11.69 114.26L10.28 111.59L8.99 108.87L7.81 106.12L6.74 103.33L5.79 100.51L4.95 97.66L4.21 94.79L3.6 91.89L3.09 88.98L2.7 86.06L2.42 83.12L2.25 80.18L2.19 77.24L2.25 74.29L2.42 71.35L2.7 68.41L3.09 65.49L3.6 62.58L4.21 59.69L4.95 56.81L5.79 53.97L6.74 51.15L7.81 48.36L8.99 45.6L10.28 42.89L11.69 40.21L13.21 37.59L14.84 35.01L16.58 32.48L18.43 30.01L20.4 27.6L22.48 25.25L24.67 22.97L25.44 22.2L26.09 21.54L26.64 21L27.07 20.57L27.41 20.23L27.65 19.99L27.81 19.83L27.89 19.75L27.89 19.75L27.82 19.82L27.69 19.94L27.51 20.13L27.28 20.36L27 20.64L26.68 20.96L26.34 21.3L25.96 21.68L25.57 22.07L25.17 22.47L24.76 22.88L24.35 23.29L23.94 23.7L23.55 24.09L23.18 24.46L22.82 24.81L22.5 25.13L22.22 25.42L21.98 25.66L21.79 25.85L21.65 25.99L21.58 26.06L21.57 26.07L21.63 26.01L21.78 25.86L22.01 25.63L22.33 25.31L22.75 24.88L23.28 24.36L23.92 23.72L24.67 22.97L27 20.73L29.4 18.6L31.87 16.59L34.39 14.7L36.97 12.92L39.61 11.25L42.29 9.7L45.02 8.27L47.8 6.95L50.61 5.74L53.46 4.65L56.34 3.67L59.25 2.81L62.19 2.07L65.14 1.44L68.12 0.92L71.11 0.52L74.11 0.23L77.11 0.06L80.12 0L83.13 0.06L86.14 0.23L89.14 0.52L92.12 0.92L95.1 1.44L98.06 2.07L100.99 2.81L103.9 3.67L106.78 4.65L109.63 5.74L112.44 6.95L115.22 8.27L117.95 9.7L120.64 11.25L123.27 12.92L125.85 14.7L128.38 16.59L130.84 18.6L133.24 20.73L135.57 22.97L143.88 31.28L152.76 40.16L162.17 49.57L172.09 59.48L182.48 69.88L193.32 80.71L204.57 91.97L216.21 103.61L228.21 115.61L240.54 127.93L253.16 140.55L266.05 153.44L279.18 166.57L292.51 179.91L306.03 193.42L319.69 207.08L333.47 220.87L347.34 234.74L361.27 248.67L375.23 262.63L389.19 276.59L403.12 290.52L417 304.39L430.78 318.17L444.44 331.84L457.96 345.35L471.29 358.69L484.42 371.82L497.31 384.71L509.94 397.33L522.26 409.66L534.26 421.66L545.91 433.3L557.16 444.56L568 455.4L578.4 465.79L588.32 475.71L597.73 485.13L606.61 494.01L614.92 502.32L617.15 504.64L619.27 507.03L621.27 509.49L623.16 512L624.93 514.58L626.59 517.2L628.14 519.88L629.57 522.6L630.88 525.36L632.09 528.16L633.17 531L634.14 533.87L635 536.77L635.75 539.7L636.38 542.64L636.89 545.6L637.29 548.58L637.58 551.57L637.75 554.56L637.81 557.56L637.75 560.56L637.58 563.56L637.29 566.54L636.89 569.52L636.38 572.48L635.75 575.43L635 578.35L634.14 581.25L633.17 584.12L632.09 586.96L630.88 589.76L629.57 592.53L628.14 595.25L626.59 597.92L624.93 600.55L623.16 603.12L621.27 605.64L619.27 608.09L617.15 610.48L614.92 612.81L612.63 615.01L610.28 617.09L607.85 619.07L605.37 620.93L602.84 622.68L600.25 624.31L597.61 625.84L594.93 627.25L592.2 628.54L589.44 629.73L586.64 630.8L583.81 631.76L580.95 632.61L578.07 633.34L575.16 633.96L572.24 634.47L569.3 634.86L566.36 635.14L563.4 635.31L560.45 635.37L557.49 635.31L554.54 635.14L551.59 634.86L548.65 634.47L545.73 633.96L542.83 633.34L539.95 632.61L537.09 631.76L534.26 630.8L531.46 629.73L528.69 628.54L525.97 627.25L523.28 625.84L520.65 624.31L518.06 622.68L515.52 620.93L513.04 619.07L510.62 617.09L508.26 615.01L505.97 612.81L497.64 604.48L488.74 595.58L479.31 586.14L469.36 576.19L458.93 565.77L448.05 554.89L436.76 543.59L425.07 531.91L413.02 519.86L400.65 507.48L387.97 494.81L375.03 481.86L361.84 468.67L348.44 455.28L334.87 441.7L321.14 427.97L307.29 414.13L293.36 400.19L279.36 386.2L265.34 372.17L251.31 358.14L237.31 344.15L223.38 330.21L209.53 316.36L195.8 302.64L182.23 289.06L168.83 275.66L155.64 262.48L142.69 249.53L130.02 236.85L117.64 224.47L105.59 212.42L93.9 200.74L82.6 189.44L71.72 178.56L61.29 168.13L51.34 158.18L41.9 148.74L33 139.84L24.67 131.5L24.67 131.5L22.48 129.22Z" id="aHVGSB30m"></path><path d="M24.67 504.01C-5.3 533.98 -5.3 582.57 24.67 612.54C35.76 623.63 13.82 601.69 24.67 612.54C55.3 643.17 104.95 643.17 135.57 612.54C242.49 505.62 507.97 240.15 614.93 133.19C645.44 102.68 645.44 53.22 614.93 22.71C604.03 11.81 625.97 33.76 614.93 22.71C584.84 -7.38 536.06 -7.38 505.97 22.71C398.86 129.82 131.83 396.85 24.67 504.01Z" id="h7arRh2Tu"></path></defs><g><g><g><use xlink:href="#aHVGSB30m" opacity="1" fill="#e34949" fill-opacity="1"></use></g><g><use xlink:href="#h7arRh2Tu" opacity="1" fill="#e34949" fill-opacity="1"></use></g></g></g></svg>