<?xml version="1.0" encoding="UTF-8" standalone="no"?>
<!DOCTYPE svg PUBLIC "-//W3C//DTD SVG 1.1//EN" "http://www.w3.org/Graphics/SVG/1.1/DTD/svg11.dtd">
<svg version="1.1" xmlns="http://www.w3.org/2000/svg" xmlns:xlink="http://www.w3.org/1999/xlink" preserveAspectRatio="xMidYMid meet" viewBox="78.14112016860196 57.66186931103341 564.8588798313981 519.4716380950144" width="560.86" height="515.47"><defs><path d="M605.52 59.08L611.73 59.55L617.95 60.19L624.16 61.01L630.38 62L636.58 63.18L640 63.88L636.23 64.89L633.95 65.53L631.69 66.2L629.45 66.92L627.22 67.68L625.01 68.48L622.82 69.31L620.64 70.19L618.49 71.1L616.35 72.06L614.23 73.05L612.14 74.08L610.06 75.15L608.01 76.25L605.98 77.39L603.97 78.57L601.98 79.79L600.01 81.03L598.07 82.32L596.16 83.64L594.26 84.99L592.4 86.38L590.55 87.81L588.74 89.26L586.95 90.75L585.19 92.28L583.45 93.83L581.75 95.42L580.07 97.04L578.42 98.69L576.8 100.37L575.21 102.08L573.65 103.83L572.12 105.6L570.62 107.4L569.16 109.24L567.72 111.1L566.32 112.99L564.95 114.91L563.62 116.86L562.32 118.83L559.48 123.24L559.48 464.82L559.42 468.32L559.25 471.8L558.96 475.25L558.56 478.68L558.06 482.07L557.44 485.44L556.72 488.77L555.89 492.06L554.96 495.32L553.93 498.53L552.8 501.7L551.56 504.83L550.24 507.91L548.81 510.95L547.29 513.93L545.68 516.86L543.98 519.73L542.19 522.55L540.31 525.31L538.35 528.01L536.3 530.64L534.17 533.21L531.96 535.7L529.66 538.13L527.29 540.49L524.85 542.78L522.33 544.98L519.73 547.11L517.06 549.16L514.33 551.12L511.52 553.01L508.65 554.8L505.71 556.51L502.71 558.12L499.65 559.64L496.53 561.07L493.35 562.39L490.11 563.62L486.81 564.75L483.46 565.77L454.39 574.13L454.39 275.72L321.1 491.9L79.14 101.38L91.56 100.84L96.4 100.69L101.23 100.66L106.04 100.76L110.83 100.97L115.6 101.31L120.36 101.76L125.08 102.33L129.79 103.02L134.46 103.83L139.11 104.75L143.73 105.79L148.31 106.93L152.86 108.19L157.37 109.57L161.84 111.05L166.27 112.64L170.66 114.34L175 116.14L179.29 118.06L183.54 120.07L187.73 122.2L191.87 124.42L195.96 126.75L199.99 129.18L203.96 131.71L207.87 134.34L211.71 137.06L215.49 139.89L219.21 142.81L222.85 145.82L226.42 148.94L229.92 152.14L233.35 155.44L236.69 158.83L239.96 162.3L243.15 165.87L246.26 169.53L249.27 173.28L252.21 177.11L255.05 181.03L257.5 184.49L321.1 285.79L383.73 184.49L416.22 143.53L420.22 138.63L424.33 133.87L428.56 129.24L432.91 124.75L437.36 120.39L441.92 116.17L446.58 112.09L451.34 108.15L456.2 104.35L461.15 100.69L466.19 97.18L471.32 93.81L476.53 90.59L481.82 87.52L487.19 84.59L492.63 81.81L498.14 79.19L503.71 76.71L509.35 74.39L515.05 72.22L520.81 70.21L526.62 68.36L532.48 66.66L538.39 65.13L544.34 63.75L550.33 62.54L556.36 61.48L562.42 60.6L568.51 59.87L574.63 59.32L580.77 58.93L586.94 58.71L593.12 58.66L599.31 58.78L605.52 59.08ZM184.22 574.13L156.82 566.25L153.4 565.21L150.03 564.06L146.72 562.8L143.47 561.44L140.28 559.99L137.15 558.43L134.08 556.78L131.08 555.04L128.15 553.21L125.28 551.28L122.48 549.27L119.76 547.18L117.11 545.01L114.53 542.75L112.03 540.42L109.61 538.01L107.27 535.52L105 532.97L102.83 530.35L100.73 527.66L98.73 524.9L96.81 522.08L94.98 519.2L93.24 516.27L91.59 513.27L90.04 510.22L88.58 507.13L87.23 503.98L85.97 500.78L84.81 497.54L83.76 494.25L82.8 490.92L81.96 487.56L81.22 484.15L80.59 480.72L80.07 477.25L79.67 473.75L79.38 470.22L79.2 466.66L79.14 463.08L79.14 127.61L184.22 298.78L184.22 574.13Z" id="c3nCKCfSPy"></path><linearGradient id="gradientaxkvfDefR" gradientUnits="userSpaceOnUse" x1="359.57" y1="58.66" x2="359.57" y2="574.13"><stop style="stop-color: #eaeaea;stop-opacity: 1" offset="0%"></stop><stop style="stop-color: #969696;stop-opacity: 1" offset="100%"></stop></linearGradient></defs><g><g><use xlink:href="#c3nCKCfSPy" opacity="1" fill="url(#gradientaxkvfDefR)"></use></g></g></svg>