<?xml version="1.0" encoding="UTF-8" standalone="no"?>
<!DOCTYPE svg PUBLIC "-//W3C//DTD SVG 1.1//EN" "http://www.w3.org/Graphics/SVG/1.1/DTD/svg11.dtd">
<svg version="1.1" xmlns="http://www.w3.org/2000/svg" xmlns:xlink="http://www.w3.org/1999/xlink" preserveAspectRatio="xMidYMid meet" viewBox="0 0 640 640" width="640" height="640"><defs><path d="M509.47 527.21L511.68 527.44L513.86 527.76L516.01 528.17L518.14 528.67L520.23 529.24L522.28 529.9L524.31 530.64L526.29 531.46L528.24 532.36L530.14 533.33L532 534.38L533.82 535.49L535.59 536.68L537.32 537.93L538.99 539.25L540.62 540.63L542.19 542.07L543.7 543.58L545.16 545.14L546.56 546.76L547.9 548.43L549.18 550.16L550.39 551.94L551.54 553.76L552.62 555.64L553.63 557.56L554.57 559.53L555.44 561.53L556.24 563.58L556.96 565.66L557.6 567.79L558.16 569.94L558.64 572.13L559.03 574.35L559.34 576.6L559.57 578.88L559.71 581.18L559.75 583.51L559.71 585.84L559.57 588.14L559.34 590.42L559.03 592.67L558.64 594.89L558.16 597.08L557.6 599.24L556.96 601.36L556.24 603.44L555.44 605.49L554.57 607.5L553.63 609.46L552.62 611.38L551.54 613.26L550.39 615.09L549.18 616.86L547.9 618.59L546.56 620.26L545.16 621.88L543.7 623.45L542.19 624.95L540.62 626.4L538.99 627.78L537.32 629.09L535.59 630.35L533.82 631.53L532 632.65L530.14 633.69L528.24 634.66L526.29 635.56L524.31 636.38L522.28 637.12L520.23 637.78L518.14 638.36L516.01 638.85L513.86 639.26L511.68 639.58L509.47 639.81L507.24 639.95L504.98 640L502.72 639.95L500.49 639.81L498.28 639.58L496.1 639.26L493.95 638.85L491.82 638.36L489.73 637.78L487.68 637.12L485.65 636.38L483.67 635.56L481.72 634.66L479.82 633.69L477.96 632.65L476.14 631.53L474.37 630.35L472.64 629.09L470.97 627.78L469.34 626.4L467.77 624.95L466.26 623.45L464.8 621.88L463.4 620.26L462.06 618.59L460.78 616.86L459.57 615.09L458.42 613.26L457.34 611.38L456.33 609.46L455.39 607.5L454.52 605.49L453.72 603.44L453 601.36L452.36 599.24L451.8 597.08L451.32 594.89L450.93 592.67L450.62 590.42L450.39 588.14L450.26 585.84L450.21 583.51L450.26 581.18L450.39 578.88L450.62 576.6L450.93 574.35L451.32 572.13L451.8 569.94L452.36 567.79L453 565.66L453.72 563.58L454.52 561.53L455.39 559.53L456.33 557.56L457.34 555.64L458.42 553.76L459.57 551.94L460.78 550.16L462.06 548.43L463.4 546.76L464.8 545.14L466.26 543.58L467.77 542.07L469.34 540.63L470.97 539.25L472.64 537.93L474.37 536.68L476.14 535.49L477.96 534.38L479.82 533.33L481.72 532.36L483.67 531.46L485.65 530.64L487.68 529.9L489.73 529.24L491.82 528.67L493.95 528.17L496.1 527.76L498.28 527.44L500.49 527.21L502.72 527.07L504.98 527.02L507.24 527.07L509.47 527.21ZM99.61 528.75L99.85 528.77L100.08 528.78L100.32 528.81L100.55 528.84L100.78 528.87L101.01 528.91L101.24 528.96L101.47 529.01L101.69 529.07L101.92 529.13L102.14 529.19L102.36 529.26L102.58 529.34L102.8 529.42L103.01 529.51L103.23 529.6L103.44 529.69L103.65 529.79L103.85 529.9L104.06 530.01L104.26 530.12L104.46 530.24L104.65 530.36L104.85 530.49L105.04 530.62L105.23 530.76L105.41 530.9L105.59 531.05L105.77 531.2L105.95 531.35L106.12 531.51L106.29 531.67L106.45 531.84L106.61 532.01L106.77 532.18L106.92 532.36L107.08 532.54L107.22 532.73L140.83 576.61L171.33 535.59L171.57 535.27L171.82 534.96L172.08 534.65L172.34 534.35L172.61 534.06L172.89 533.78L173.17 533.5L173.46 533.23L173.76 532.96L174.06 532.7L174.36 532.45L174.67 532.21L174.99 531.98L175.31 531.75L175.64 531.53L175.97 531.32L176.3 531.11L176.64 530.92L176.99 530.73L177.33 530.55L177.69 530.38L178.04 530.21L178.4 530.06L178.77 529.91L179.14 529.77L179.51 529.64L179.88 529.52L180.26 529.41L180.64 529.3L181.02 529.21L181.4 529.12L181.79 529.04L182.18 528.97L182.57 528.91L182.97 528.86L183.37 528.82L183.76 528.78L184.16 528.76L184.56 528.75L184.97 528.74L191.32 528.74L191.64 528.75L191.94 528.77L192.25 528.8L192.55 528.84L192.85 528.89L193.14 528.96L193.43 529.04L193.71 529.13L193.99 529.22L194.27 529.33L194.53 529.45L194.8 529.58L195.05 529.72L195.3 529.87L195.55 530.03L195.79 530.2L196.02 530.37L196.24 530.56L196.46 530.75L196.67 530.95L196.87 531.16L197.06 531.38L197.25 531.6L197.42 531.83L197.59 532.07L197.75 532.32L197.9 532.57L198.04 532.82L198.17 533.09L198.29 533.36L198.4 533.63L198.49 533.91L198.58 534.19L198.66 534.48L198.73 534.77L198.78 535.07L198.82 535.37L198.85 535.68L198.87 535.99L198.88 536.3L198.88 630L198.87 630.31L198.86 630.61L198.83 630.9L198.78 631.2L198.73 631.49L198.67 631.77L198.59 632.05L198.5 632.33L198.41 632.6L198.3 632.87L198.18 633.13L198.06 633.39L197.92 633.64L197.78 633.88L197.62 634.12L197.46 634.35L197.29 634.58L197.11 634.8L196.92 635.01L196.72 635.21L196.52 635.41L196.31 635.6L196.09 635.78L195.86 635.95L195.63 636.11L195.39 636.27L195.15 636.41L194.9 636.55L194.64 636.68L194.38 636.79L194.11 636.9L193.84 637L193.56 637.08L193.28 637.16L193 637.22L192.71 637.27L192.41 637.32L192.11 637.35L191.81 637.37L191.51 637.37L180.06 637.37L179.75 637.37L179.44 637.35L179.13 637.32L178.83 637.27L178.54 637.22L178.24 637.15L177.95 637.07L177.67 636.99L177.39 636.89L177.12 636.78L176.85 636.66L176.58 636.53L176.33 636.39L176.08 636.24L175.83 636.08L175.59 635.91L175.36 635.74L175.14 635.55L174.92 635.36L174.71 635.16L174.51 634.95L174.32 634.73L174.13 634.51L173.96 634.28L173.79 634.04L173.63 633.79L173.48 633.54L173.34 633.29L173.21 633.02L173.09 632.75L172.98 632.48L172.88 632.2L172.8 631.92L172.72 631.63L172.65 631.33L172.6 631.04L172.55 630.74L172.52 630.43L172.5 630.12L172.5 629.81L172.5 575.48L150 605.41L149.64 605.86L149.27 606.28L148.88 606.69L148.48 607.07L148.07 607.43L147.64 607.76L147.2 608.08L146.75 608.37L146.28 608.64L145.81 608.88L145.33 609.1L144.84 609.3L144.35 609.48L143.85 609.63L143.34 609.76L142.83 609.87L142.31 609.96L141.8 610.02L141.28 610.06L140.76 610.07L140.23 610.07L139.71 610.04L139.2 609.99L138.68 609.91L138.17 609.81L137.66 609.69L137.15 609.55L136.65 609.38L136.16 609.19L135.68 608.98L135.2 608.74L134.73 608.48L134.28 608.2L133.83 607.9L133.39 607.57L132.97 607.22L132.56 606.84L132.17 606.44L131.79 606.02L131.42 605.58L107.89 575.48L107.89 629.12L107.88 629.46L107.86 629.8L107.83 630.13L107.78 630.46L107.72 630.79L107.65 631.11L107.56 631.42L107.47 631.73L107.36 632.03L107.24 632.33L107.11 632.63L106.97 632.91L106.82 633.19L106.65 633.47L106.48 633.73L106.3 633.99L106.1 634.25L105.9 634.49L105.69 634.73L105.47 634.96L105.24 635.18L105.01 635.39L104.76 635.59L104.51 635.78L104.25 635.96L103.98 636.14L103.71 636.3L103.43 636.45L103.14 636.59L102.85 636.72L102.55 636.84L102.25 636.95L101.94 637.05L101.62 637.13L101.3 637.2L100.98 637.26L100.65 637.31L100.32 637.34L99.98 637.36L99.64 637.37L90.73 637.37L90.33 637.36L89.95 637.34L89.56 637.3L89.18 637.25L88.81 637.18L88.44 637.09L88.07 637L87.71 636.89L87.36 636.76L87.02 636.62L86.68 636.47L86.34 636.31L86.02 636.13L85.7 635.94L85.4 635.74L85.09 635.53L84.8 635.31L84.52 635.08L84.25 634.83L83.98 634.58L83.73 634.31L83.49 634.04L83.25 633.76L83.03 633.47L82.82 633.17L82.62 632.86L82.43 632.54L82.25 632.22L82.09 631.89L81.94 631.55L81.8 631.2L81.68 630.85L81.56 630.49L81.47 630.13L81.38 629.76L81.32 629.38L81.26 629L81.22 628.62L81.2 628.23L81.19 627.83L81.19 538.24L81.2 537.84L81.22 537.46L81.26 537.07L81.31 536.7L81.38 536.32L81.47 535.95L81.56 535.59L81.67 535.23L81.8 534.88L81.94 534.54L82.09 534.2L82.25 533.87L82.43 533.55L82.61 533.23L82.81 532.93L83.02 532.63L83.24 532.34L83.48 532.06L83.72 531.78L83.97 531.52L84.23 531.27L84.51 531.03L84.79 530.79L85.08 530.57L85.38 530.36L85.68 530.16L86 529.98L86.32 529.8L86.65 529.64L86.99 529.49L87.33 529.35L87.68 529.22L88.04 529.11L88.4 529.02L88.77 528.93L89.15 528.86L89.52 528.81L89.91 528.77L90.29 528.75L90.69 528.74L99.14 528.74L99.38 528.74L99.61 528.75ZM389.52 528.77L389.88 528.81L390.24 528.86L390.6 528.92L390.95 529L391.3 529.1L391.64 529.2L391.97 529.32L392.3 529.45L392.62 529.6L392.94 529.75L393.24 529.92L393.54 530.1L393.84 530.29L394.12 530.49L394.4 530.7L394.67 530.92L394.93 531.15L395.18 531.39L395.42 531.64L395.65 531.9L395.87 532.17L396.08 532.45L396.28 532.73L396.47 533.03L396.65 533.33L396.82 533.63L396.97 533.95L397.12 534.27L397.25 534.6L397.37 534.93L397.47 535.27L397.57 535.62L397.65 535.97L397.71 536.33L397.76 536.69L397.8 537.05L397.82 537.42L397.83 537.79L397.83 614.96L441.74 614.96L442.06 614.97L442.38 614.99L442.69 615.02L443.01 615.06L443.31 615.12L443.62 615.19L443.92 615.27L444.21 615.36L444.5 615.46L444.78 615.58L445.06 615.7L445.33 615.84L445.6 615.98L445.86 616.14L446.11 616.3L446.36 616.47L446.6 616.66L446.83 616.85L447.06 617.05L447.27 617.26L447.48 617.47L447.68 617.7L447.87 617.93L448.05 618.17L448.23 618.41L448.39 618.67L448.55 618.93L448.69 619.19L448.83 619.47L448.95 619.74L449.06 620.03L449.17 620.32L449.26 620.61L449.34 620.91L449.41 621.21L449.46 621.52L449.51 621.83L449.54 622.15L449.56 622.47L449.57 622.79L449.57 629.93L449.56 630.24L449.54 630.54L449.51 630.84L449.47 631.14L449.41 631.43L449.35 631.72L449.27 632L449.19 632.28L449.09 632.56L448.98 632.83L448.86 633.09L448.73 633.35L448.6 633.6L448.45 633.85L448.29 634.09L448.13 634.33L447.96 634.55L447.77 634.77L447.58 634.99L447.39 635.19L447.18 635.39L446.97 635.58L446.75 635.76L446.52 635.94L446.28 636.1L446.04 636.26L445.8 636.4L445.54 636.54L445.29 636.67L445.02 636.79L444.75 636.89L444.48 636.99L444.2 637.08L443.91 637.16L443.62 637.22L443.33 637.27L443.03 637.32L442.73 637.35L442.43 637.37L442.12 637.37L380.35 637.37L379.95 637.36L379.56 637.34L379.17 637.3L378.79 637.25L378.41 637.18L378.04 637.09L377.67 636.99L377.31 636.88L376.95 636.75L376.6 636.61L376.26 636.46L375.92 636.3L375.59 636.12L375.27 635.93L374.96 635.73L374.66 635.51L374.36 635.29L374.08 635.05L373.8 634.8L373.54 634.55L373.28 634.28L373.03 634.01L372.8 633.72L372.57 633.43L372.36 633.12L372.16 632.81L371.97 632.49L371.79 632.16L371.62 631.83L371.47 631.48L371.33 631.13L371.2 630.78L371.09 630.42L370.99 630.05L370.91 629.67L370.84 629.3L370.78 628.91L370.74 628.52L370.72 628.13L370.71 627.73L370.71 538.12L370.72 537.73L370.74 537.35L370.78 536.97L370.84 536.6L370.9 536.23L370.99 535.86L371.08 535.51L371.19 535.15L371.31 534.81L371.45 534.47L371.6 534.13L371.76 533.81L371.93 533.49L372.12 533.18L372.31 532.87L372.52 532.58L372.74 532.29L372.97 532.02L373.21 531.75L373.46 531.49L373.72 531.24L373.99 531L374.27 530.77L374.55 530.55L374.85 530.34L375.15 530.15L375.46 529.96L375.78 529.79L376.11 529.63L376.44 529.48L376.78 529.34L377.13 529.22L377.48 529.11L377.84 529.01L378.2 528.93L378.57 528.86L378.94 528.81L379.32 528.77L379.7 528.75L380.09 528.74L388.78 528.74L389.15 528.75L389.52 528.77ZM279.51 528.77L279.83 528.8L280.14 528.84L280.45 528.9L280.75 528.97L281.05 529.05L281.34 529.14L281.63 529.24L281.92 529.36L282.2 529.48L282.47 529.61L282.73 529.76L282.99 529.91L283.25 530.08L283.49 530.25L283.73 530.43L283.97 530.63L284.19 530.83L284.41 531.03L284.61 531.25L284.81 531.47L285.01 531.71L285.19 531.95L285.36 532.19L285.53 532.45L285.68 532.71L285.83 532.97L285.96 533.24L286.08 533.52L286.2 533.81L286.3 534.09L286.39 534.39L286.47 534.69L286.54 534.99L286.6 535.3L286.64 535.61L286.67 535.93L286.69 536.25L286.7 536.57L286.7 546.26L286.69 546.62L286.67 546.98L286.63 547.33L286.58 547.68L286.52 548.03L286.44 548.37L286.35 548.71L286.25 549.04L286.13 549.36L286.01 549.68L285.87 550L285.72 550.3L285.55 550.6L285.38 550.89L285.2 551.18L285 551.46L284.79 551.72L284.58 551.99L284.35 552.24L284.12 552.48L283.88 552.72L283.62 552.94L283.36 553.16L283.09 553.36L282.82 553.56L282.53 553.74L282.24 553.92L281.94 554.08L281.63 554.23L281.32 554.37L281 554.5L280.68 554.61L280.35 554.71L280.01 554.8L279.67 554.88L279.32 554.95L278.97 555L278.62 555.03L278.26 555.05L277.89 555.06L227.63 555.06L227.63 569.36L261.75 569.36L262.13 569.36L262.5 569.39L262.88 569.42L263.24 569.48L263.61 569.54L263.97 569.62L264.32 569.72L264.67 569.83L265.01 569.95L265.34 570.08L265.67 570.23L265.99 570.39L266.3 570.56L266.61 570.74L266.91 570.93L267.2 571.14L267.48 571.35L267.76 571.58L268.02 571.81L268.28 572.06L268.52 572.32L268.76 572.58L268.98 572.85L269.2 573.14L269.4 573.43L269.6 573.73L269.78 574.03L269.95 574.35L270.11 574.67L270.25 575L270.39 575.33L270.51 575.67L270.62 576.02L270.71 576.37L270.79 576.73L270.86 577.09L270.91 577.46L270.95 577.83L270.97 578.21L270.98 578.59L270.98 586.71L270.97 587.13L270.95 587.56L270.9 587.98L270.84 588.39L270.77 588.8L270.68 589.2L270.57 589.6L270.45 589.98L270.32 590.37L270.16 590.74L270 591.11L269.82 591.47L269.63 591.83L269.43 592.17L269.21 592.51L268.98 592.83L268.74 593.15L268.48 593.46L268.22 593.75L267.94 594.04L267.65 594.32L267.36 594.58L267.05 594.84L266.73 595.08L266.41 595.31L266.07 595.52L265.73 595.73L265.37 595.92L265.01 596.1L264.64 596.26L264.27 596.41L263.89 596.55L263.5 596.67L263.1 596.78L262.7 596.87L262.29 596.94L261.88 597L261.46 597.04L261.03 597.07L260.61 597.08L227.63 597.08L227.63 610.82L277.89 610.82L278.26 610.83L278.62 610.85L278.97 610.89L279.32 610.94L279.67 611L280.01 611.08L280.35 611.17L280.68 611.27L281 611.39L281.32 611.52L281.63 611.66L281.94 611.81L282.24 611.97L282.53 612.14L282.82 612.33L283.09 612.52L283.36 612.73L283.62 612.94L283.88 613.17L284.12 613.4L284.35 613.65L284.58 613.9L284.79 614.16L285 614.43L285.2 614.71L285.38 614.99L285.55 615.28L285.72 615.58L285.87 615.89L286.01 616.2L286.13 616.52L286.25 616.85L286.35 617.18L286.44 617.51L286.52 617.85L286.58 618.2L286.63 618.55L286.67 618.91L286.69 619.27L286.7 619.63L286.7 629.09L286.69 629.43L286.67 629.76L286.64 630.1L286.59 630.43L286.53 630.76L286.46 631.08L286.37 631.39L286.28 631.7L286.17 632.01L286.05 632.31L285.92 632.6L285.77 632.89L285.62 633.17L285.46 633.45L285.28 633.72L285.1 633.98L284.91 634.23L284.7 634.48L284.49 634.72L284.27 634.94L284.04 635.17L283.81 635.38L283.56 635.58L283.31 635.77L283.05 635.96L282.78 636.13L282.5 636.29L282.22 636.45L281.93 636.59L281.64 636.72L281.34 636.84L281.03 636.95L280.72 637.05L280.4 637.13L280.08 637.2L279.76 637.26L279.43 637.31L279.09 637.34L278.75 637.36L278.41 637.37L211.73 637.37L211.3 637.36L210.87 637.34L210.44 637.29L210.02 637.23L209.61 637.16L209.2 637.07L208.8 636.96L208.4 636.83L208.02 636.7L207.63 636.54L207.26 636.38L206.89 636.2L206.54 636L206.19 635.79L205.85 635.57L205.52 635.34L205.19 635.1L204.88 634.84L204.58 634.57L204.29 634.29L204.01 634L203.74 633.7L203.48 633.38L203.24 633.06L203 632.73L202.78 632.39L202.58 632.04L202.38 631.68L202.2 631.32L202.03 630.94L201.88 630.56L201.74 630.17L201.62 629.78L201.51 629.38L201.42 628.97L201.34 628.55L201.28 628.13L201.24 627.71L201.22 627.28L201.21 626.85L201.21 538.22L201.21 537.83L201.24 537.45L201.28 537.06L201.33 536.69L201.4 536.31L201.48 535.95L201.58 535.58L201.69 535.23L201.81 534.88L201.95 534.53L202.1 534.2L202.26 533.87L202.44 533.54L202.63 533.23L202.83 532.92L203.04 532.62L203.26 532.33L203.49 532.05L203.73 531.78L203.98 531.52L204.25 531.27L204.52 531.02L204.8 530.79L205.09 530.57L205.39 530.36L205.69 530.16L206.01 529.97L206.33 529.8L206.66 529.64L207 529.49L207.34 529.35L207.69 529.22L208.05 529.11L208.41 529.02L208.78 528.93L209.15 528.86L209.53 528.81L209.91 528.77L210.3 528.75L210.69 528.74L278.87 528.74L279.19 528.75L279.51 528.77ZM308.09 528.77L308.46 528.81L308.82 528.86L309.18 528.92L309.53 529L309.87 529.1L310.21 529.2L310.55 529.32L310.88 529.45L311.2 529.6L311.51 529.75L311.82 529.92L312.12 530.1L312.41 530.29L312.7 530.49L312.98 530.7L313.24 530.92L313.5 531.15L313.75 531.39L314 531.64L314.23 531.9L314.45 532.17L314.66 532.45L314.86 532.73L315.05 533.03L315.23 533.33L315.4 533.63L315.55 533.95L315.69 534.27L315.83 534.6L315.94 534.93L316.05 535.27L316.14 535.62L316.22 535.97L316.29 536.33L316.34 536.69L316.38 537.05L316.4 537.42L316.41 537.79L316.41 614.96L360.31 614.96L360.64 614.97L360.95 614.99L361.27 615.02L361.58 615.06L361.89 615.12L362.19 615.19L362.49 615.27L362.79 615.36L363.08 615.46L363.36 615.58L363.64 615.7L363.91 615.84L364.18 615.98L364.44 616.14L364.69 616.3L364.94 616.47L365.18 616.66L365.41 616.85L365.63 617.05L365.85 617.26L366.06 617.47L366.26 617.7L366.45 617.93L366.63 618.17L366.8 618.41L366.97 618.67L367.12 618.93L367.27 619.19L367.4 619.47L367.53 619.74L367.64 620.03L367.74 620.32L367.83 620.61L367.91 620.91L367.98 621.21L368.04 621.52L368.08 621.83L368.12 622.15L368.14 622.47L368.14 622.79L368.14 629.93L368.14 630.24L368.12 630.54L368.09 630.84L368.04 631.14L367.99 631.43L367.93 631.72L367.85 632L367.76 632.28L367.67 632.56L367.56 632.83L367.44 633.09L367.31 633.35L367.17 633.6L367.03 633.85L366.87 634.09L366.71 634.33L366.53 634.55L366.35 634.77L366.16 634.99L365.96 635.19L365.76 635.39L365.54 635.58L365.32 635.76L365.1 635.94L364.86 636.1L364.62 636.26L364.37 636.4L364.12 636.54L363.86 636.67L363.6 636.79L363.33 636.89L363.05 636.99L362.77 637.08L362.49 637.16L362.2 637.22L361.91 637.27L361.61 637.32L361.31 637.35L361.01 637.37L360.7 637.37L298.93 637.37L298.53 637.36L298.14 637.34L297.75 637.3L297.37 637.25L296.99 637.18L296.61 637.09L296.24 636.99L295.88 636.88L295.53 636.75L295.18 636.61L294.83 636.46L294.5 636.3L294.17 636.12L293.85 635.93L293.54 635.73L293.24 635.51L292.94 635.29L292.66 635.05L292.38 634.8L292.11 634.55L291.86 634.28L291.61 634.01L291.37 633.72L291.15 633.43L290.94 633.12L290.73 632.81L290.54 632.49L290.37 632.16L290.2 631.83L290.05 631.48L289.91 631.13L289.78 630.78L289.67 630.42L289.57 630.05L289.49 629.67L289.42 629.3L289.36 628.91L289.32 628.52L289.3 628.13L289.29 627.73L289.29 538.12L289.3 537.73L289.32 537.35L289.36 536.97L289.41 536.6L289.48 536.23L289.56 535.86L289.66 535.51L289.77 535.15L289.89 534.81L290.03 534.47L290.18 534.13L290.34 533.81L290.51 533.49L290.69 533.18L290.89 532.87L291.1 532.58L291.32 532.29L291.55 532.02L291.79 531.75L292.04 531.49L292.3 531.24L292.56 531L292.84 530.77L293.13 530.55L293.42 530.34L293.73 530.15L294.04 529.96L294.36 529.79L294.68 529.63L295.02 529.48L295.36 529.34L295.7 529.22L296.06 529.11L296.41 529.01L296.78 528.93L297.15 528.86L297.52 528.81L297.9 528.77L298.28 528.75L298.67 528.74L307.35 528.74L307.73 528.75L308.09 528.77ZM502.16 553.8L500.92 553.95L499.71 554.16L498.51 554.42L497.33 554.74L496.17 555.11L495.03 555.54L493.92 556.02L492.83 556.55L491.76 557.12L490.73 557.74L489.72 558.41L488.74 559.13L487.79 559.89L486.87 560.68L485.98 561.52L485.13 562.4L484.32 563.32L483.54 564.28L482.79 565.26L482.09 566.29L481.43 567.34L480.81 568.43L480.23 569.55L479.7 570.7L479.21 571.87L478.76 573.07L478.37 574.3L478.02 575.55L477.72 576.82L477.48 578.11L477.29 579.42L477.15 580.75L477.06 582.1L477.03 583.46L477.06 584.82L477.15 586.17L477.29 587.5L477.48 588.81L477.72 590.1L478.02 591.38L478.37 592.62L478.76 593.85L479.21 595.05L479.7 596.22L480.23 597.37L480.81 598.49L481.43 599.58L482.09 600.63L482.79 601.66L483.54 602.65L484.32 603.6L485.13 604.52L485.98 605.4L486.87 606.24L487.79 607.04L488.74 607.79L489.72 608.51L490.73 609.18L491.76 609.8L492.83 610.38L493.92 610.9L495.03 611.38L496.17 611.81L497.33 612.18L498.51 612.5L499.71 612.77L500.92 612.97L502.16 613.12L503.41 613.22L504.67 613.25L505.93 613.22L507.18 613.12L508.42 612.97L509.64 612.77L510.83 612.5L512.01 612.18L513.17 611.81L514.31 611.38L515.42 610.9L516.51 610.38L517.58 609.8L518.61 609.18L519.62 608.51L520.6 607.79L521.55 607.04L522.47 606.24L523.36 605.4L524.21 604.52L525.02 603.6L525.8 602.65L526.55 601.66L527.25 600.63L527.91 599.58L528.53 598.49L529.11 597.37L529.64 596.22L530.13 595.05L530.58 593.85L530.97 592.62L531.32 591.38L531.62 590.1L531.86 588.81L532.05 587.5L532.19 586.17L532.28 584.82L532.31 583.46L532.28 582.1L532.19 580.75L532.05 579.42L531.86 578.11L531.62 576.82L531.32 575.55L530.97 574.3L530.58 573.07L530.13 571.87L529.64 570.7L529.11 569.55L528.53 568.43L527.91 567.34L527.25 566.29L526.55 565.26L525.8 564.28L525.02 563.32L524.21 562.4L523.36 561.52L522.47 560.68L521.55 559.89L520.6 559.13L519.62 558.41L518.61 557.74L517.58 557.12L516.51 556.55L515.42 556.02L514.31 555.54L513.17 555.11L512.01 554.74L510.83 554.42L509.64 554.16L508.42 553.95L507.18 553.8L505.93 553.71L504.67 553.68L503.41 553.71L502.16 553.8ZM605.52 5.08L611.73 5.55L617.95 6.19L624.16 7.01L630.38 8L636.58 9.18L640 9.88L636.23 10.89L633.95 11.53L631.69 12.2L629.45 12.92L627.22 13.68L625.01 14.48L622.82 15.31L620.64 16.19L618.49 17.1L616.35 18.06L614.23 19.05L612.14 20.08L610.06 21.15L608.01 22.25L605.98 23.39L603.97 24.57L601.98 25.79L600.01 27.03L598.07 28.32L596.16 29.64L594.26 30.99L592.4 32.38L590.55 33.81L588.74 35.26L586.95 36.75L585.19 38.28L583.45 39.83L581.75 41.42L580.07 43.04L578.42 44.69L576.8 46.37L575.21 48.08L573.65 49.83L572.12 51.6L570.62 53.4L569.16 55.24L567.72 57.1L566.32 58.99L564.95 60.91L563.62 62.86L562.32 64.83L559.48 69.24L559.48 410.82L559.42 414.32L559.25 417.8L558.96 421.25L558.56 424.68L558.06 428.07L557.44 431.44L556.72 434.77L555.89 438.06L554.96 441.32L553.93 444.53L552.8 447.7L551.56 450.83L550.24 453.91L548.81 456.95L547.29 459.93L545.68 462.86L543.98 465.73L542.19 468.55L540.31 471.31L538.35 474.01L536.3 476.64L534.17 479.21L531.96 481.7L529.66 484.13L527.29 486.49L524.85 488.78L522.33 490.98L519.73 493.11L517.06 495.16L514.33 497.12L511.52 499.01L508.65 500.8L505.71 502.51L502.71 504.12L499.65 505.64L496.53 507.07L493.35 508.39L490.11 509.62L486.81 510.75L483.46 511.77L454.39 520.13L454.39 221.72L321.1 437.9L79.14 47.38L91.56 46.84L96.4 46.69L101.23 46.66L106.04 46.76L110.83 46.97L115.6 47.31L120.36 47.76L125.08 48.33L129.79 49.02L134.46 49.83L139.11 50.75L143.73 51.79L148.31 52.93L152.86 54.19L157.37 55.57L161.84 57.05L166.27 58.64L170.66 60.34L175 62.14L179.29 64.06L183.54 66.07L187.73 68.2L191.87 70.42L195.96 72.75L199.99 75.18L203.96 77.71L207.87 80.34L211.71 83.06L215.49 85.89L219.21 88.81L222.85 91.82L226.42 94.94L229.92 98.14L233.35 101.44L236.69 104.83L239.96 108.3L243.15 111.87L246.26 115.53L249.27 119.28L252.21 123.11L255.05 127.03L257.5 130.49L321.1 231.79L383.73 130.49L416.22 89.53L420.22 84.63L424.33 79.87L428.56 75.24L432.91 70.75L437.36 66.39L441.92 62.17L446.58 58.09L451.34 54.15L456.2 50.35L461.15 46.69L466.19 43.18L471.32 39.81L476.53 36.59L481.82 33.52L487.19 30.59L492.63 27.81L498.14 25.19L503.71 22.71L509.35 20.39L515.05 18.22L520.81 16.21L526.62 14.36L532.48 12.66L538.39 11.13L544.34 9.75L550.33 8.54L556.36 7.48L562.42 6.6L568.51 5.87L574.63 5.32L580.77 4.93L586.94 4.71L593.12 4.66L599.31 4.78L605.52 5.08ZM184.22 520.13L156.82 512.25L153.4 511.21L150.03 510.06L146.72 508.8L143.47 507.44L140.28 505.99L137.15 504.43L134.08 502.78L131.08 501.04L128.15 499.21L125.28 497.28L122.48 495.27L119.76 493.18L117.11 491.01L114.53 488.75L112.03 486.42L109.61 484.01L107.27 481.52L105 478.97L102.83 476.35L100.73 473.66L98.73 470.9L96.81 468.08L94.98 465.2L93.24 462.27L91.59 459.27L90.04 456.22L88.58 453.13L87.23 449.98L85.97 446.78L84.81 443.54L83.76 440.25L82.8 436.92L81.96 433.56L81.22 430.15L80.59 426.72L80.07 423.25L79.67 419.75L79.38 416.22L79.2 412.66L79.14 409.08L79.14 73.61L184.22 244.78L184.22 520.13Z" id="aywfyYYe"></path><linearGradient id="gradientejLAmDmtl" gradientUnits="userSpaceOnUse" x1="359.57" y1="4.66" x2="359.57" y2="640"><stop style="stop-color: #eaeaea;stop-opacity: 1" offset="0%"></stop><stop style="stop-color: #969696;stop-opacity: 1" offset="100%"></stop></linearGradient></defs><g><g><g><use xlink:href="#aywfyYYe" opacity="1" fill="url(#gradientejLAmDmtl)"></use></g></g></g></svg>